<mxfile host="app.diagrams.net" agent="Mozilla/5.0 (Macintosh; Intel Mac OS X 10_15_7) AppleWebKit/605.1.15 (KHTML, like Gecko) Version/18.4 Safari/605.1.15" version="27.0.1">
  <diagram name="Seite-1" id="RiWL7UGFOMK9hR6FUCRO">
    <mxGraphModel dx="946" dy="629" grid="1" gridSize="10" guides="1" tooltips="1" connect="1" arrows="1" fold="1" page="1" pageScale="1" pageWidth="827" pageHeight="1169" math="0" shadow="0">
      <root>
        <mxCell id="0" />
        <mxCell id="1" parent="0" />
        <mxCell id="UXKPTOqq_0qHGmjlRGbl-10" style="edgeStyle=orthogonalEdgeStyle;rounded=0;orthogonalLoop=1;jettySize=auto;html=1;entryX=0;entryY=0.5;entryDx=0;entryDy=0;horizontal=1;" edge="1" parent="1" source="UXKPTOqq_0qHGmjlRGbl-3" target="UXKPTOqq_0qHGmjlRGbl-5">
          <mxGeometry relative="1" as="geometry" />
        </mxCell>
        <mxCell id="UXKPTOqq_0qHGmjlRGbl-11" value="0: request Charging Profile" style="edgeLabel;html=1;align=center;verticalAlign=middle;resizable=0;points=[];" vertex="1" connectable="0" parent="UXKPTOqq_0qHGmjlRGbl-10">
          <mxGeometry x="-0.2308" y="-1" relative="1" as="geometry">
            <mxPoint x="57" as="offset" />
          </mxGeometry>
        </mxCell>
        <mxCell id="UXKPTOqq_0qHGmjlRGbl-3" value="Wallbox" style="shape=image;html=1;verticalAlign=top;verticalLabelPosition=bottom;labelBackgroundColor=#ffffff;imageAspect=0;aspect=fixed;image=https://cdn3.iconfinder.com/data/icons/energy-and-power-glyph-24-px/24/Filling_station_fuel_station_gas_station_petrol_pump_petrol_station-128.png" vertex="1" parent="1">
          <mxGeometry x="140" y="240" width="128" height="128" as="geometry" />
        </mxCell>
        <mxCell id="UXKPTOqq_0qHGmjlRGbl-12" style="edgeStyle=orthogonalEdgeStyle;rounded=0;orthogonalLoop=1;jettySize=auto;html=1;exitX=1;exitY=0;exitDx=0;exitDy=0;" edge="1" parent="1" source="UXKPTOqq_0qHGmjlRGbl-5" target="UXKPTOqq_0qHGmjlRGbl-7">
          <mxGeometry relative="1" as="geometry" />
        </mxCell>
        <mxCell id="UXKPTOqq_0qHGmjlRGbl-13" value="1: request configuration for User" style="edgeLabel;html=1;align=center;verticalAlign=middle;resizable=0;points=[];" vertex="1" connectable="0" parent="UXKPTOqq_0qHGmjlRGbl-12">
          <mxGeometry x="-0.5444" y="-1" relative="1" as="geometry">
            <mxPoint x="98" y="-1" as="offset" />
          </mxGeometry>
        </mxCell>
        <mxCell id="UXKPTOqq_0qHGmjlRGbl-16" style="edgeStyle=orthogonalEdgeStyle;rounded=0;orthogonalLoop=1;jettySize=auto;html=1;exitX=0.75;exitY=0;exitDx=0;exitDy=0;entryX=0;entryY=0.25;entryDx=0;entryDy=0;" edge="1" parent="1" source="UXKPTOqq_0qHGmjlRGbl-5" target="UXKPTOqq_0qHGmjlRGbl-6">
          <mxGeometry relative="1" as="geometry" />
        </mxCell>
        <mxCell id="UXKPTOqq_0qHGmjlRGbl-17" value="2: request pricing information" style="edgeLabel;html=1;align=center;verticalAlign=middle;resizable=0;points=[];" vertex="1" connectable="0" parent="UXKPTOqq_0qHGmjlRGbl-16">
          <mxGeometry x="0.175" y="1" relative="1" as="geometry">
            <mxPoint as="offset" />
          </mxGeometry>
        </mxCell>
        <mxCell id="UXKPTOqq_0qHGmjlRGbl-20" style="edgeStyle=orthogonalEdgeStyle;rounded=0;orthogonalLoop=1;jettySize=auto;html=1;exitX=1;exitY=0.5;exitDx=0;exitDy=0;entryX=0;entryY=0.5;entryDx=0;entryDy=0;" edge="1" parent="1" source="UXKPTOqq_0qHGmjlRGbl-5" target="UXKPTOqq_0qHGmjlRGbl-8">
          <mxGeometry relative="1" as="geometry" />
        </mxCell>
        <mxCell id="UXKPTOqq_0qHGmjlRGbl-21" value="3: request spot prices for EIC Area" style="edgeLabel;html=1;align=center;verticalAlign=middle;resizable=0;points=[];" vertex="1" connectable="0" parent="UXKPTOqq_0qHGmjlRGbl-20">
          <mxGeometry x="-0.51" y="3" relative="1" as="geometry">
            <mxPoint x="42" y="3" as="offset" />
          </mxGeometry>
        </mxCell>
        <mxCell id="UXKPTOqq_0qHGmjlRGbl-27" style="edgeStyle=orthogonalEdgeStyle;rounded=0;orthogonalLoop=1;jettySize=auto;html=1;exitX=0.5;exitY=1;exitDx=0;exitDy=0;entryX=0;entryY=0.5;entryDx=0;entryDy=0;" edge="1" parent="1" source="UXKPTOqq_0qHGmjlRGbl-5" target="UXKPTOqq_0qHGmjlRGbl-9">
          <mxGeometry relative="1" as="geometry" />
        </mxCell>
        <mxCell id="UXKPTOqq_0qHGmjlRGbl-28" value="5: store charging profile" style="edgeLabel;html=1;align=center;verticalAlign=middle;resizable=0;points=[];" vertex="1" connectable="0" parent="UXKPTOqq_0qHGmjlRGbl-27">
          <mxGeometry x="0.0276" y="2" relative="1" as="geometry">
            <mxPoint as="offset" />
          </mxGeometry>
        </mxCell>
        <mxCell id="UXKPTOqq_0qHGmjlRGbl-29" style="edgeStyle=orthogonalEdgeStyle;rounded=0;orthogonalLoop=1;jettySize=auto;html=1;exitX=0;exitY=0.75;exitDx=0;exitDy=0;entryX=0.25;entryY=1;entryDx=0;entryDy=0;" edge="1" parent="1" source="UXKPTOqq_0qHGmjlRGbl-5" target="UXKPTOqq_0qHGmjlRGbl-3">
          <mxGeometry relative="1" as="geometry" />
        </mxCell>
        <mxCell id="UXKPTOqq_0qHGmjlRGbl-30" value="6: retrieve OCPP XML" style="edgeLabel;html=1;align=center;verticalAlign=middle;resizable=0;points=[];" vertex="1" connectable="0" parent="UXKPTOqq_0qHGmjlRGbl-29">
          <mxGeometry x="-0.4118" y="2" relative="1" as="geometry">
            <mxPoint as="offset" />
          </mxGeometry>
        </mxCell>
        <mxCell id="UXKPTOqq_0qHGmjlRGbl-5" value="Computation Process" style="shape=process;whiteSpace=wrap;html=1;backgroundOutline=1;" vertex="1" parent="1">
          <mxGeometry x="250" y="500" width="120" height="60" as="geometry" />
        </mxCell>
        <mxCell id="UXKPTOqq_0qHGmjlRGbl-6" value="Pricing Information Storage" style="image;html=1;image=img/lib/clip_art/computers/Database_128x128.png" vertex="1" parent="1">
          <mxGeometry x="690" y="270" width="80" height="80" as="geometry" />
        </mxCell>
        <mxCell id="UXKPTOqq_0qHGmjlRGbl-14" style="edgeStyle=orthogonalEdgeStyle;rounded=0;orthogonalLoop=1;jettySize=auto;html=1;exitX=0;exitY=0.75;exitDx=0;exitDy=0;entryX=1;entryY=0.25;entryDx=0;entryDy=0;" edge="1" parent="1" source="UXKPTOqq_0qHGmjlRGbl-7" target="UXKPTOqq_0qHGmjlRGbl-5">
          <mxGeometry relative="1" as="geometry" />
        </mxCell>
        <mxCell id="UXKPTOqq_0qHGmjlRGbl-15" value="retrieve Configuration" style="edgeLabel;html=1;align=center;verticalAlign=middle;resizable=0;points=[];" vertex="1" connectable="0" parent="UXKPTOqq_0qHGmjlRGbl-14">
          <mxGeometry x="0.4479" y="-2" relative="1" as="geometry">
            <mxPoint as="offset" />
          </mxGeometry>
        </mxCell>
        <mxCell id="UXKPTOqq_0qHGmjlRGbl-7" value="Configuration Storage" style="image;html=1;image=img/lib/clip_art/computers/Database_128x128.png" vertex="1" parent="1">
          <mxGeometry x="690" y="420" width="80" height="80" as="geometry" />
        </mxCell>
        <mxCell id="UXKPTOqq_0qHGmjlRGbl-22" style="edgeStyle=orthogonalEdgeStyle;rounded=0;orthogonalLoop=1;jettySize=auto;html=1;exitX=0;exitY=0.75;exitDx=0;exitDy=0;entryX=0.75;entryY=1;entryDx=0;entryDy=0;" edge="1" parent="1" source="UXKPTOqq_0qHGmjlRGbl-8" target="UXKPTOqq_0qHGmjlRGbl-5">
          <mxGeometry relative="1" as="geometry" />
        </mxCell>
        <mxCell id="UXKPTOqq_0qHGmjlRGbl-23" value="4: retrieve spot prices" style="edgeLabel;html=1;align=center;verticalAlign=middle;resizable=0;points=[];" vertex="1" connectable="0" parent="UXKPTOqq_0qHGmjlRGbl-22">
          <mxGeometry x="0.1286" relative="1" as="geometry">
            <mxPoint as="offset" />
          </mxGeometry>
        </mxCell>
        <mxCell id="UXKPTOqq_0qHGmjlRGbl-8" value="Spot price Storage" style="image;html=1;image=img/lib/clip_art/computers/Database_128x128.png" vertex="1" parent="1">
          <mxGeometry x="690" y="570" width="80" height="80" as="geometry" />
        </mxCell>
        <mxCell id="UXKPTOqq_0qHGmjlRGbl-9" value="Charging Profile Storage" style="image;html=1;image=img/lib/clip_art/computers/Database_128x128.png" vertex="1" parent="1">
          <mxGeometry x="690" y="720" width="80" height="80" as="geometry" />
        </mxCell>
        <mxCell id="UXKPTOqq_0qHGmjlRGbl-18" style="edgeStyle=orthogonalEdgeStyle;rounded=0;orthogonalLoop=1;jettySize=auto;html=1;entryX=0.908;entryY=0.033;entryDx=0;entryDy=0;entryPerimeter=0;" edge="1" parent="1" source="UXKPTOqq_0qHGmjlRGbl-6" target="UXKPTOqq_0qHGmjlRGbl-5">
          <mxGeometry relative="1" as="geometry" />
        </mxCell>
        <mxCell id="UXKPTOqq_0qHGmjlRGbl-19" value="retrieve pricing information" style="edgeLabel;html=1;align=center;verticalAlign=middle;resizable=0;points=[];" vertex="1" connectable="0" parent="UXKPTOqq_0qHGmjlRGbl-18">
          <mxGeometry x="-0.1969" y="2" relative="1" as="geometry">
            <mxPoint as="offset" />
          </mxGeometry>
        </mxCell>
        <mxCell id="UXKPTOqq_0qHGmjlRGbl-32" style="edgeStyle=orthogonalEdgeStyle;rounded=0;orthogonalLoop=1;jettySize=auto;html=1;entryX=0.5;entryY=0;entryDx=0;entryDy=0;" edge="1" parent="1" source="UXKPTOqq_0qHGmjlRGbl-31" target="UXKPTOqq_0qHGmjlRGbl-3">
          <mxGeometry relative="1" as="geometry" />
        </mxCell>
        <mxCell id="UXKPTOqq_0qHGmjlRGbl-33" value="Connect to Wallbox" style="edgeLabel;html=1;align=center;verticalAlign=middle;resizable=0;points=[];" vertex="1" connectable="0" parent="UXKPTOqq_0qHGmjlRGbl-32">
          <mxGeometry x="0.0935" y="2" relative="1" as="geometry">
            <mxPoint x="-2" y="-36" as="offset" />
          </mxGeometry>
        </mxCell>
        <mxCell id="UXKPTOqq_0qHGmjlRGbl-31" value="EV&lt;div&gt;&lt;br&gt;&lt;/div&gt;" style="shape=mxgraph.signs.transportation.car_1;html=1;pointerEvents=1;fillColor=#000000;strokeColor=none;verticalLabelPosition=bottom;verticalAlign=top;align=center;" vertex="1" parent="1">
          <mxGeometry x="20" y="60" width="99" height="88" as="geometry" />
        </mxCell>
      </root>
    </mxGraphModel>
  </diagram>
</mxfile>
